<svg width="467" height="488" viewBox="0 0 467 488" fill="none" xmlns="http://www.w3.org/2000/svg">
<g clip-path="url(#clip0_294_120)">
<path d="M274.503 474.351C330.441 474.351 375.787 465.664 375.787 454.948C375.787 444.232 330.441 435.545 274.503 435.545C218.565 435.545 173.219 444.232 173.219 454.948C173.219 465.664 218.565 474.351 274.503 474.351Z" fill="#E4E4E4"/>
<path d="M136.703 465.59C186.288 465.59 226.485 451.937 226.485 435.097C226.485 418.256 186.288 404.604 136.703 404.604C87.1185 404.604 46.9219 418.256 46.9219 435.097C46.9219 451.937 87.1185 465.59 136.703 465.59Z" fill="#E4E4E4"/>
<path d="M375.805 487.986C424.065 487.986 463.187 474.172 463.187 457.131C463.187 440.091 424.065 426.277 375.805 426.277C327.544 426.277 288.422 440.091 288.422 457.131C288.422 474.172 327.544 487.986 375.805 487.986Z" fill="#E4E4E4"/>
<path d="M296.33 230.684C290.435 232.144 281.013 229.498 274.915 229.021C260.666 227.937 246.36 227.04 232.069 227.807C221.173 228.399 210.479 230.539 199.526 230.308C193.962 230.192 185.61 230.727 180.422 228.66C175.35 226.635 171.419 217.657 168.602 213.146C156.593 193.96 145.986 173.92 135.091 154.083C130.438 145.611 117.967 130.053 121.29 120.106C122.808 115.58 127.229 110.375 129.729 106.284L139.859 89.7C145.77 80.0273 151.68 70.3546 157.59 60.6819C163.847 50.4454 169.454 38.2136 177.012 28.8879C183.341 21.0804 197.141 23.6684 206.534 23.8853C218.557 24.1745 230.566 24.9986 242.603 25.2155C253.658 25.4179 264.727 25.3022 275.767 24.854C281.027 24.6372 286.287 24.3335 291.547 24.1311C294.322 24.0299 298.093 23.1769 300.579 24.8685C302.298 26.0396 304.654 30.5506 305.839 32.2567C318.44 50.4454 330.015 69.4293 340.246 89.0493C343.035 94.4134 345.751 99.8064 348.367 105.243C351.04 110.78 355.65 117.923 356.777 123.937C358.006 130.473 354.046 135.678 351.011 141.403C348.035 147.013 345.029 152.623 341.994 158.204C334.191 172.547 325.708 186.485 317.573 200.639C314.076 206.741 310.492 212.755 306.72 218.553C304.018 222.703 301.749 229.339 296.345 230.669L296.33 230.684Z" fill="#007CDC"/>
<path d="M144.093 114.982C146.608 110.225 149.165 105.483 151.738 100.755C158.341 88.6098 165.538 76.7973 172.416 64.8112C175.379 59.6496 178.413 54.5458 181.607 49.6299C183.905 46.1165 185.827 40.4922 190.393 39.3645C195.378 38.1355 203.37 40.3765 208.528 40.7669C220.595 41.6923 232.719 42.4441 244.814 41.7935C254.048 41.2874 263.094 39.4801 272.371 39.6681C277.082 39.7693 284.148 39.3066 288.556 41.0705C292.848 42.7911 296.186 50.3962 298.57 54.2132C308.743 70.4645 317.732 87.4386 326.951 104.239C330.896 111.425 341.459 124.597 338.642 133.026C337.355 136.872 333.613 141.267 331.489 144.737L322.905 158.791C317.905 166.989 312.891 175.172 307.891 183.37C302.602 192.045 297.848 202.397 291.446 210.292C286.085 216.899 274.409 214.716 266.432 214.528C256.244 214.282 246.071 213.588 235.883 213.4C226.519 213.227 217.155 213.328 207.791 213.704C203.341 213.877 198.89 214.138 194.425 214.311C192.084 214.398 188.876 215.121 186.78 213.689C185.321 212.706 183.327 208.875 182.329 207.429C171.65 192.031 161.853 175.953 153.197 159.326C150.827 154.786 148.544 150.217 146.319 145.605C144.064 140.92 140.148 134.862 139.194 129.773C138.154 124.235 141.507 119.825 144.079 114.982H144.093Z" fill="#E4E4E4"/>
<path d="M215.216 113.811C215.216 115.042 214.721 115.823 213.73 116.153C212.559 116.544 210.141 117.039 206.477 117.64C206.417 118.871 206.297 121.393 206.117 125.207C206.027 127.339 205.336 128.405 204.045 128.405C203.144 128.405 202.228 127.91 201.297 126.919C200.577 126.168 200.186 124.892 200.126 123.09C200.186 124.652 200.216 123.24 200.216 118.856C192.018 120.387 186.508 121.153 183.685 121.153C182.604 121.153 181.417 120.793 180.126 120.072C178.835 119.351 177.904 118.526 177.333 117.595C176.733 117.264 176.432 116.829 176.432 116.288C176.432 114.787 180.877 109.952 189.766 101.784C193.489 98.3604 197.664 94.1862 202.288 89.2613C203.159 88.3303 204.18 87.8649 205.351 87.8649C206.132 87.8649 206.778 88.3003 207.288 89.1712C207.709 89.9219 207.919 90.7177 207.919 91.5586C207.919 92.039 207.829 92.3994 207.649 92.6396C207.438 96.7838 207.153 103 206.793 111.288C209.616 110.838 211.282 110.613 211.793 110.613C214.075 110.613 215.216 111.679 215.216 113.811ZM200.532 101.198C196.267 105.943 192.093 110.192 188.009 113.946C190.712 113.556 194.781 112.985 200.216 112.234C200.246 108.06 200.351 104.381 200.532 101.198ZM255.34 96.5135C255.34 112.159 251.105 122.189 242.637 126.604C240.445 127.745 238.238 128.315 236.015 128.315C232.712 128.315 229.334 127.054 225.88 124.532C222.217 121.859 220.385 118.901 220.385 115.658C220.385 111.423 222.217 107.354 225.88 103.45C229.334 99.7568 232.667 96.4835 235.88 93.6306C239.844 90.1171 243.793 88.3604 247.727 88.3604C249.949 88.3604 251.796 89.1712 253.268 90.7928C254.649 92.3544 255.34 94.2613 255.34 96.5135ZM248.268 101.378C248.268 100.027 247.892 98.8559 247.141 97.8649C246.331 96.7538 245.265 96.1982 243.943 96.1982C241.901 96.1982 239.574 97.3844 236.961 99.7568C235.64 100.958 233.778 102.985 231.376 105.838C229.304 108.3 228.268 110.733 228.268 113.135C228.268 115.387 229.214 117.369 231.105 119.081C232.997 120.793 235.084 121.649 237.367 121.649C238.598 121.649 239.829 121.288 241.06 120.568C243.943 118.886 245.955 116.063 247.096 112.099C247.877 109.366 248.268 105.793 248.268 101.378ZM300.068 113.811C300.068 115.042 299.573 115.823 298.582 116.153C297.41 116.544 294.993 117.039 291.329 117.64C291.269 118.871 291.149 121.393 290.969 125.207C290.879 127.339 290.188 128.405 288.897 128.405C287.996 128.405 287.08 127.91 286.149 126.919C285.428 126.168 285.038 124.892 284.978 123.09C285.038 124.652 285.068 123.24 285.068 118.856C276.87 120.387 271.359 121.153 268.537 121.153C267.455 121.153 266.269 120.793 264.978 120.072C263.687 119.351 262.756 118.526 262.185 117.595C261.585 117.264 261.284 116.829 261.284 116.288C261.284 114.787 265.729 109.952 274.618 101.784C278.341 98.3604 282.515 94.1862 287.14 89.2613C288.011 88.3303 289.032 87.8649 290.203 87.8649C290.984 87.8649 291.63 88.3003 292.14 89.1712C292.561 89.9219 292.771 90.7177 292.771 91.5586C292.771 92.039 292.681 92.3994 292.5 92.6396C292.29 96.7838 292.005 103 291.645 111.288C294.467 110.838 296.134 110.613 296.645 110.613C298.927 110.613 300.068 111.679 300.068 113.811ZM285.383 101.198C281.119 105.943 276.945 110.192 272.861 113.946C275.564 113.556 279.633 112.985 285.068 112.234C285.098 108.06 285.203 104.381 285.383 101.198Z" fill="black"/>
<path d="M178.919 160.432C179.532 162.09 181.153 162.919 183.784 162.919C184.721 162.919 186.099 162.685 187.919 162.216C189.757 161.748 191.144 161.514 192.081 161.514C192.712 161.514 193.297 161.847 193.838 162.514C194.324 163.162 194.568 163.811 194.568 164.459C194.568 164.694 194.541 164.883 194.486 165.027C194.27 165.477 193.766 165.73 192.973 165.784C191.117 165.928 189.018 166.198 186.676 166.595C185.829 166.739 184.928 166.811 183.973 166.811C180.82 166.811 178.468 165.784 176.919 163.73C175.568 161.91 174.892 159.369 174.892 156.108C174.892 153.532 175.288 150.27 176.081 146.324C176.063 146.234 176.054 146.144 176.054 146.054C176.054 145.91 176.18 145.432 176.432 144.622C176.919 143.901 177.577 143.541 178.405 143.541C178.874 143.541 179.234 143.712 179.486 144.054C180.838 143.586 182.667 143.081 184.973 142.541C187.64 141.91 189.468 141.595 190.459 141.595C191.126 141.595 191.838 141.955 192.595 142.676C193.351 143.396 193.73 144.081 193.73 144.73C193.73 145.342 193.234 145.685 192.243 145.757C188.045 146.099 183.865 147.072 179.703 148.676C179.45 150.261 179.099 152.649 178.649 155.838C181.045 155.063 183.468 154.414 185.919 153.892C190.027 153.027 192.523 152.595 193.405 152.595C194 152.595 194.649 152.865 195.351 153.405C196.054 153.946 196.405 154.505 196.405 155.081C196.405 155.459 196.243 155.712 195.919 155.838C195.793 155.892 195.45 155.937 194.892 155.973C192.081 156.189 187.784 157.297 182 159.297C181.081 159.622 180.054 160 178.919 160.432ZM208.413 158.784C211.71 160.099 214.422 161.432 216.548 162.784C217.431 163.342 217.872 164.108 217.872 165.081C217.872 165.604 217.647 165.865 217.197 165.865C216.926 165.865 216.557 165.748 216.089 165.514C212.449 163.676 208.629 162.315 204.629 161.432L204.17 161.73V163.135C204.17 164.18 204.143 164.856 204.089 165.162C203.926 166.027 203.539 166.459 202.926 166.459C202.44 166.459 201.944 166.225 201.44 165.757C200.935 165.27 200.674 164.784 200.656 164.297C200.62 163.883 200.566 162.775 200.494 160.973C200.332 156.631 200.251 153.622 200.251 151.946C200.251 150.793 200.287 149.766 200.359 148.865C199.872 148.631 199.377 148.18 198.872 147.514C198.386 146.829 198.143 146.225 198.143 145.703C198.143 145.288 198.341 144.964 198.737 144.73C198.845 144.676 199.476 144.459 200.629 144.081C204.917 142.694 208.458 141.964 211.251 141.892L212.197 141.865C214.197 141.811 215.962 142.063 217.494 142.622C219.584 143.378 220.629 144.631 220.629 146.378C220.629 148.162 219.449 150 217.089 151.892C214.746 153.784 211.854 156.081 208.413 158.784ZM213.791 145.378C211.827 145.378 208.674 146.189 204.332 147.811C204.332 148.333 204.323 149.658 204.305 151.784L204.278 155.811C206.764 154.73 210.152 152.559 214.44 149.297C215.701 148.342 216.332 147.559 216.332 146.946C216.332 146.423 216.025 146.018 215.413 145.73C214.926 145.495 214.386 145.378 213.791 145.378ZM233.158 158.784C236.455 160.099 239.167 161.432 241.293 162.784C242.176 163.342 242.618 164.108 242.618 165.081C242.618 165.604 242.392 165.865 241.942 165.865C241.672 165.865 241.302 165.748 240.834 165.514C237.194 163.676 233.374 162.315 229.374 161.432L228.915 161.73V163.135C228.915 164.18 228.888 164.856 228.834 165.162C228.672 166.027 228.284 166.459 227.672 166.459C227.185 166.459 226.69 166.225 226.185 165.757C225.681 165.27 225.419 164.784 225.401 164.297C225.365 163.883 225.311 162.775 225.239 160.973C225.077 156.631 224.996 153.622 224.996 151.946C224.996 150.793 225.032 149.766 225.104 148.865C224.618 148.631 224.122 148.18 223.618 147.514C223.131 146.829 222.888 146.225 222.888 145.703C222.888 145.288 223.086 144.964 223.482 144.73C223.591 144.676 224.221 144.459 225.374 144.081C229.663 142.694 233.203 141.964 235.996 141.892L236.942 141.865C238.942 141.811 240.708 142.063 242.239 142.622C244.329 143.378 245.374 144.631 245.374 146.378C245.374 148.162 244.194 150 241.834 151.892C239.491 153.784 236.6 156.081 233.158 158.784ZM238.536 145.378C236.573 145.378 233.419 146.189 229.077 147.811C229.077 148.333 229.068 149.658 229.05 151.784L229.023 155.811C231.509 154.73 234.897 152.559 239.185 149.297C240.446 148.342 241.077 147.559 241.077 146.946C241.077 146.423 240.771 146.018 240.158 145.73C239.672 145.495 239.131 145.378 238.536 145.378ZM266.687 154.135C266.687 159.541 265.038 163.18 261.741 165.054C260.498 165.757 259.237 166.108 257.957 166.108C255.867 166.108 253.642 165.306 251.282 163.703C248.777 162.009 247.39 160.18 247.12 158.216C247.065 157.82 247.038 157.378 247.038 156.892C247.038 154.91 247.714 153.009 249.065 151.189C250.687 149.009 252.309 147.045 253.93 145.297C255.876 143.189 258.047 142.135 260.444 142.135C261.777 142.135 262.966 142.631 264.011 143.622C264.984 144.541 265.615 145.676 265.903 147.027C266.426 149.441 266.687 151.811 266.687 154.135ZM259.093 146.838C257.687 146.838 256.444 147.514 255.363 148.865C254.138 150.396 253.309 151.505 252.876 152.189C251.975 153.631 251.525 154.901 251.525 156C251.525 157.586 252.21 159 253.579 160.243C254.948 161.486 256.426 162.108 258.011 162.108C258.732 162.108 259.426 161.892 260.093 161.459C261.93 160.288 262.849 158.099 262.849 154.892C262.849 149.523 261.597 146.838 259.093 146.838ZM279.719 158.784C283.016 160.099 285.728 161.432 287.854 162.784C288.737 163.342 289.178 164.108 289.178 165.081C289.178 165.604 288.953 165.865 288.503 165.865C288.232 165.865 287.863 165.748 287.395 165.514C283.755 163.676 279.935 162.315 275.935 161.432L275.476 161.73V163.135C275.476 164.18 275.449 164.856 275.395 165.162C275.232 166.027 274.845 166.459 274.232 166.459C273.746 166.459 273.25 166.225 272.746 165.757C272.241 165.27 271.98 164.784 271.962 164.297C271.926 163.883 271.872 162.775 271.8 160.973C271.638 156.631 271.557 153.622 271.557 151.946C271.557 150.793 271.593 149.766 271.665 148.865C271.178 148.631 270.683 148.18 270.178 147.514C269.692 146.829 269.449 146.225 269.449 145.703C269.449 145.288 269.647 144.964 270.043 144.73C270.151 144.676 270.782 144.459 271.935 144.081C276.223 142.694 279.764 141.964 282.557 141.892L283.503 141.865C285.503 141.811 287.268 142.063 288.8 142.622C290.89 143.378 291.935 144.631 291.935 146.378C291.935 148.162 290.755 150 288.395 151.892C286.052 153.784 283.16 156.081 279.719 158.784ZM285.097 145.378C283.133 145.378 279.98 146.189 275.638 147.811C275.638 148.333 275.629 149.658 275.611 151.784L275.584 155.811C278.07 154.73 281.458 152.559 285.746 149.297C287.007 148.342 287.638 147.559 287.638 146.946C287.638 146.423 287.332 146.018 286.719 145.73C286.232 145.495 285.692 145.378 285.097 145.378ZM297.924 157.703C297.383 157.703 296.87 157.441 296.383 156.919C295.897 156.396 295.653 155.865 295.653 155.324C295.653 153.595 295.815 151.018 296.14 147.595C296.518 143.505 296.933 141.171 297.383 140.595C297.653 140.252 298.041 139.928 298.545 139.622C299.068 139.315 299.536 139.162 299.951 139.162C300.689 139.162 301.059 139.631 301.059 140.568C301.059 142.009 300.888 143.838 300.545 146.054C300.383 147.009 300.095 148.856 299.68 151.595C299.626 152.153 299.5 153.243 299.302 154.865C299.122 156.486 298.834 157.396 298.437 157.595C298.293 157.667 298.122 157.703 297.924 157.703ZM297.194 166.243C296.455 166.243 295.797 165.955 295.221 165.378C294.662 164.802 294.383 164.144 294.383 163.405C294.383 162.649 294.635 161.973 295.14 161.378C295.662 160.766 296.293 160.459 297.032 160.459C297.77 160.459 298.419 160.757 298.978 161.351C299.554 161.928 299.843 162.586 299.843 163.324C299.843 164.081 299.581 164.757 299.059 165.351C298.554 165.946 297.933 166.243 297.194 166.243Z" fill="black"/>
<path d="M135.133 131.759C137.417 137.225 140.249 142.574 142.865 147.881C152.257 166.995 162.792 185.603 174.454 203.415C177.257 207.695 180.075 211.96 183.008 216.139C185.219 219.276 185.118 219.334 188.991 219.088C200.595 218.365 212.083 217.57 223.745 217.585C234.424 217.599 245.074 218.091 255.738 218.654C261.027 218.929 266.33 219.204 271.634 219.276C274.278 219.305 276.923 219.305 279.567 219.218C282.371 219.132 287.573 219.71 290.102 218.452C292.298 217.353 291.662 217.888 293.324 214.91C295.998 210.124 298.873 205.454 301.749 200.769C307.948 190.634 314.147 180.484 320.347 170.349C326.069 160.98 331.792 151.625 337.514 142.271C339.479 139.061 342.687 135.403 343.569 131.644C344.421 128.015 342.63 125.297 340.953 122.188C330.52 102.684 319.899 83.1937 308.743 64.0941C305.578 58.6722 302.269 53.3371 298.945 48.0164C296.937 44.8211 294.986 39.8329 291.518 37.8521C288.194 35.9436 282.833 36.6087 279.206 36.4063C272.819 36.0304 266.547 35.9292 260.174 36.5509C235.334 38.9799 211.028 36.8979 186.159 35.2352C183.138 35.0327 179.28 42.6379 178.138 44.8066C175.205 50.4165 172.228 55.8384 168.933 61.347C161.564 73.6656 154.902 86.3745 147.995 98.9534C145.408 103.667 142.836 108.395 140.292 113.137C138.399 116.679 135.307 120.728 134.281 124.617C133.544 127.422 134.035 129.171 135.119 131.759H135.133ZM143.977 115.291C146.492 110.535 149.049 105.792 151.622 101.064C158.226 88.9192 165.422 77.1067 172.3 65.1207C175.263 59.959 178.297 54.8552 181.491 49.9394C183.789 46.426 185.711 40.8017 190.277 39.6739C195.262 38.4449 203.254 40.686 208.412 41.0764C220.479 42.0017 232.603 42.7535 244.698 42.1029C253.932 41.5969 262.978 39.7896 272.255 39.9775C276.966 40.0787 284.032 39.6161 288.44 41.38C292.732 43.1005 296.07 50.7057 298.454 54.5227C308.627 70.7739 317.616 87.7481 326.835 104.549C330.78 111.735 341.343 124.906 338.526 133.335C337.24 137.181 333.497 141.577 331.373 145.047L322.789 159.1C317.789 167.298 312.775 175.482 307.775 183.68C302.486 192.355 297.732 202.707 291.33 210.601C285.969 217.209 274.293 215.025 266.316 214.837C256.128 214.592 245.955 213.898 235.767 213.71C226.403 213.536 217.039 213.637 207.675 214.013C203.225 214.187 198.774 214.447 194.309 214.621C191.968 214.707 188.76 215.43 186.664 213.999C185.205 213.016 183.211 209.184 182.214 207.738C171.535 192.34 161.737 176.262 153.081 159.635C150.711 155.095 148.428 150.526 146.203 145.914C143.948 141.23 140.032 135.172 139.078 130.082C138.038 124.545 141.391 120.135 143.963 115.291H143.977Z" fill="black"/>
<path d="M372.756 115.725C372.583 113.874 372.193 112.024 371.513 110.144C365.603 93.7049 355.892 78.7694 348.017 63.2411C342.193 51.7611 336.095 40.4402 329.968 29.1192C326.904 23.466 323.725 17.8561 320.792 12.1306C318.653 7.95213 316.76 2.93506 312.165 0.838596C308.913 -0.636162 305.286 0.173509 301.876 0.462677C292.44 1.28681 283.032 1.5326 273.567 1.8796C260.33 2.29889 247.108 2.73265 233.871 3.10857C224.334 3.36882 214.782 3.05073 205.245 3.52786C198.121 3.88932 191.517 3.19532 185.91 8.47263C182.572 11.6101 179.898 15.4271 177.384 19.2441C177.081 19.6779 176.806 20.1116 176.531 20.5454C175.953 20.9792 175.795 21.5719 174.566 23.7407C171.402 29.3939 168.006 34.9026 164.624 40.4402C157.298 52.4117 149.986 64.3833 142.659 76.3693C135.896 87.4155 129.148 98.4762 122.385 109.522C120.059 113.325 116.272 117.634 115.232 122.072C114.235 126.352 116.345 129.562 118.31 133.234C130.622 156.252 143.165 179.27 156.33 201.825C160.072 208.23 163.959 214.519 167.904 220.809C170.274 224.582 172.586 230.467 176.676 232.809C180.607 235.065 186.936 234.27 191.213 234.515C198.757 234.949 206.17 235.079 213.684 234.342C215.721 234.139 217.745 233.98 219.782 233.836C221.56 233.72 224.146 233.069 225.88 233.474C230.533 234.573 228.9 239.908 228.886 243.046C228.843 248.786 228.973 254.54 229.031 260.28C229.146 271.775 229.291 283.269 229.464 294.749C229.71 311.752 229.984 328.755 230.259 345.773C230.577 366.145 231.241 386.502 231.646 406.859C231.848 417.154 231.993 427.448 231.993 437.757C231.993 449.035 230.591 463.536 246.588 461.975C254.839 461.165 259.059 453.922 258.394 446.36C257.44 435.299 258.177 423.819 258.12 412.686C258.004 389.668 257.758 366.665 257.354 343.662C257.339 342.736 257.325 341.826 257.31 340.9C256.978 322.191 256.573 303.482 256.01 284.787C255.504 267.9 256.328 250.015 253.712 233.229C257.599 233.33 261.472 233.474 265.345 233.662C276.674 234.197 287.902 236.742 299.275 236.409C309.896 236.091 316.818 226.173 321.688 217.946C327.511 208.1 333.927 198.89 339.216 188.523C344.881 177.448 350.3 166.257 355.849 155.11C361.788 143.182 374.042 129.88 372.742 115.711L372.756 115.725ZM191.806 11.5089C198.005 7.28704 205.23 7.96659 212.34 7.76417C222.831 7.475 233.308 7.20029 243.799 6.91113C263.914 6.36171 284.058 6.00025 304.174 5.46528C301.471 9.75943 299 14.1403 297.093 18.8827C283.596 19.7213 270.244 20.6321 256.703 20.6177C244.088 20.5888 231.516 20.0104 218.93 19.3454C212.672 19.0128 206.43 18.6947 200.173 18.608C197.051 18.5646 193.93 18.5791 190.809 18.6803C189.19 18.7381 186.907 18.5935 184.638 18.6224C186.893 16.0344 189.262 13.2439 191.806 11.5089ZM250.836 453.517L250.808 453.56C249.16 455.599 246.978 456.886 244.319 456.813C233.467 456.553 235.548 441.126 235.345 433.998C235.056 424.195 234.897 414.407 234.782 404.604C234.565 385.013 234.565 365.407 234.233 345.816C233.987 331.097 233.756 316.379 233.496 301.66C233.293 290.166 233.091 278.657 232.845 267.162C232.73 261.408 232.6 255.668 232.455 249.913C232.383 247.195 232.094 244.361 232.325 241.643C232.499 239.489 232.195 237.291 232.672 235.151C233.149 232.983 233.915 233.229 235.952 233.185C240.316 233.098 244.68 233.069 249.03 233.142C247.542 250.622 249.709 268.999 250.186 286.45C250.692 305.159 251.169 323.854 251.516 342.563C251.935 364.829 252.209 387.109 252.354 409.375C252.426 420.393 252.455 431.424 252.469 442.442C252.469 446.461 253.524 450.133 250.836 453.502V453.517ZM296.211 230.684C290.315 232.144 280.894 229.498 274.796 229.021C260.547 227.937 246.241 227.04 231.95 227.807C221.054 228.399 210.36 230.539 199.407 230.308C193.843 230.192 185.491 230.727 180.303 228.66C175.231 226.635 171.3 217.657 168.482 213.146C156.474 193.959 145.867 173.92 134.972 154.083C130.318 145.611 117.848 130.053 121.171 120.106C122.689 115.58 127.11 110.375 129.61 106.284L139.74 89.6999C145.651 80.0273 151.561 70.3546 157.471 60.6819C163.728 50.4454 169.335 38.2136 176.893 28.8879C183.222 21.0804 197.022 23.6684 206.415 23.8853C218.438 24.1745 230.447 24.9986 242.484 25.2155C253.539 25.4179 264.608 25.3022 275.648 24.854C280.908 24.6371 286.168 24.3335 291.428 24.1311C294.203 24.0299 297.974 23.1768 300.46 24.8685C302.179 26.0396 304.535 30.5506 305.72 32.2567C318.321 50.4454 329.896 69.4293 340.127 89.0493C342.916 94.4134 345.632 99.8064 348.248 105.243C350.921 110.78 355.531 117.923 356.658 123.937C357.886 130.473 353.927 135.678 350.892 141.403C347.916 147.013 344.91 152.623 341.875 158.204C334.072 172.547 325.589 186.484 317.454 200.639C313.957 206.741 310.373 212.755 306.601 218.553C303.899 222.703 301.63 229.339 296.226 230.669L296.211 230.684ZM336.557 183.202C330.401 195.29 324.144 207.652 315.908 218.423C314.347 220.115 312.757 221.792 311.153 223.455C314.419 217.252 317.728 211.223 321.384 205.121C330.084 190.576 337.945 175.568 346.109 160.72C349.173 155.153 352.207 149.572 355.199 143.962C357.135 140.333 360.141 136.256 361.687 132.237C362.193 132.237 362.684 132.049 363.089 131.658C354.592 149.008 345.257 166.04 336.529 183.202H336.557ZM366.181 111.662C366.094 111.821 365.993 111.966 365.95 112.154C364.895 115.899 363.103 119.152 361.629 122.68C361.542 122.448 361.441 122.217 361.34 121.971C358.652 115.523 355.3 109.204 352.207 102.929C341.124 80.3598 328.682 58.3975 314.91 37.3605C311.601 32.3145 308.278 27.2686 304.809 22.3382C303.523 20.502 302.902 19.5622 302.035 19.114C301.717 18.955 304.333 13.9235 304.549 13.5186C306.153 10.3088 307.916 7.7208 310.315 5.10382C311.442 3.8604 315.127 12.5354 315.445 13.0559C316.876 15.3259 318.277 17.6103 319.665 19.9092C322.439 24.507 325.127 29.1626 327.743 33.8471C332.988 43.2451 337.959 52.8165 342.771 62.4458C346.861 70.6438 350.82 78.8995 354.736 87.1842C356.658 91.2614 358.58 95.3532 360.488 99.4449C361.441 101.484 362.395 103.522 363.349 105.561C363.725 106.356 366.557 111.041 366.21 111.677L366.181 111.662Z" fill="black"/>
<path d="M191.808 11.5089C198.007 7.28709 205.233 7.96664 212.342 7.76422C222.834 7.47505 233.31 7.20034 243.801 6.91117C263.917 6.36175 284.061 6.00029 304.176 5.46533C301.474 9.75948 299.003 14.1404 297.095 18.8827C283.598 19.7213 270.246 20.6322 256.706 20.6177C244.09 20.5888 231.518 20.0105 218.932 19.3454C212.675 19.0129 206.432 18.6948 200.175 18.608C197.054 18.5646 193.932 18.5791 190.811 18.6803C189.193 18.7381 186.909 18.5936 184.641 18.6225C186.895 16.0344 189.265 13.244 191.808 11.5089Z" fill="#F1E9EA"/>
<path d="M336.568 183.202C330.412 195.29 324.155 207.652 315.918 218.423C314.358 220.115 312.768 221.792 311.164 223.455C314.43 217.252 317.739 211.223 321.395 205.121C330.094 190.576 337.955 175.568 346.12 160.72C349.184 155.153 352.218 149.572 355.209 143.962C357.146 140.333 360.152 136.256 361.698 132.237C362.204 132.237 362.695 132.049 363.1 131.658C354.603 149.008 345.267 166.04 336.539 183.202H336.568Z" fill="#E4E4E4"/>
<path d="M366.196 111.662C366.11 111.821 366.009 111.966 365.965 112.154C364.91 115.899 363.118 119.152 361.644 122.68C361.558 122.448 361.457 122.217 361.355 121.971C358.668 115.523 355.315 109.204 352.223 102.929C341.139 80.3598 328.697 58.3975 314.926 37.3605C311.616 32.3146 308.293 27.2686 304.825 22.3383C303.539 20.502 302.917 19.5623 302.05 19.114C301.732 18.955 304.348 13.9235 304.565 13.5186C306.169 10.3089 307.932 7.72082 310.33 5.10385C311.458 3.86043 315.142 12.5355 315.46 13.056C316.891 15.3259 318.293 17.6104 319.68 19.9093C322.454 24.507 325.142 29.1626 327.758 33.8472C333.003 43.2451 337.974 52.8166 342.786 62.4459C346.876 70.6438 350.835 78.8995 354.752 87.1842C356.673 91.2615 358.595 95.3532 360.503 99.4449C361.457 101.484 362.41 103.522 363.364 105.561C363.74 106.356 366.572 111.041 366.225 111.677L366.196 111.662Z" fill="#F1E9EA"/>
<path d="M252.481 442.456C252.481 431.439 252.438 420.407 252.366 409.39C252.221 387.109 251.961 364.843 251.528 342.577C251.181 323.868 250.704 305.159 250.198 286.464C249.953 277.688 249.288 268.681 248.883 259.659C248.479 250.752 248.305 241.831 249.042 233.142C244.678 233.07 240.314 233.098 235.964 233.185C233.941 233.229 233.161 232.968 232.684 235.152C232.222 237.291 232.525 239.489 232.337 241.643C232.121 244.362 232.41 247.181 232.467 249.914C232.569 253.904 232.655 257.895 232.742 261.885C237.366 262.333 242.019 261.914 246.297 260.584C246.484 262.883 246.499 265.095 246.499 266.83C249.288 329.565 249.36 393.63 246.773 456.466C248.349 455.96 249.707 454.948 250.82 453.575L250.849 453.531C253.536 450.162 252.481 446.49 252.481 442.471V442.456Z" fill="#E4E4E4"/>
<path d="M246.499 266.83C246.499 265.095 246.499 262.883 246.297 260.584C242.019 261.914 237.366 262.333 232.742 261.885C232.786 263.649 232.829 265.398 232.858 267.162C233.103 278.657 233.306 290.166 233.508 301.66C233.768 316.379 233.999 331.097 234.245 345.816C234.577 365.407 234.577 385.013 234.794 404.604C234.91 414.407 235.069 424.21 235.358 433.998C235.56 441.126 233.479 456.538 244.332 456.813C245.199 456.828 246.008 456.698 246.774 456.452C249.36 393.616 249.288 329.55 246.499 266.815V266.83Z" fill="#E4E4E4"/>
<path d="M294.836 457.478C308.26 455.208 322.017 447.459 334.141 441.169L348.838 445.666C363.447 450.133 378.042 454.587 392.681 458.982C407.319 463.377 421.972 467.715 436.596 472.125C444.573 474.525 452.824 477.489 461.249 477.113C462.708 477.04 464.254 476.853 465.382 475.942C466.812 474.785 467.217 472.717 466.87 470.925C466.422 468.626 464.977 466.385 463.763 464.404C454.934 450.162 445.931 436.022 436.639 422.07C427.333 408.088 417.738 394.31 407.738 380.82C402.753 374.082 397.652 367.417 392.464 360.838C391.958 360.202 391.438 359.566 390.932 358.944C390.499 352.163 389.863 345.382 389.039 338.616C388.374 330.548 388.924 319.516 385.773 312.012C381.467 301.732 371.901 306.619 364.271 308.947C352.855 312.432 341.526 316.234 330.312 320.34C319.214 324.403 308.419 329.232 297.581 333.96C290.197 337.184 280.428 342.52 280.226 351.397C279.764 372.087 278.218 392.835 279.793 413.525C280.472 422.446 280.631 431.872 282.047 440.634C283.189 447.704 285.125 459.127 294.821 457.493L294.836 457.478ZM460.613 468.944C460.786 469.392 460.844 469.898 460.757 470.361C460.7 470.708 460.555 471.04 460.31 471.301C459.674 472.009 458.59 472.052 457.636 472.023C452.521 471.879 447.694 470.317 442.81 468.799C437.521 467.165 432.434 464.982 427.174 463.276C426.784 462.785 426.408 462.293 426.047 461.787C425.931 461.599 425.816 461.397 425.686 461.223C425.686 461.209 425.657 461.194 425.642 461.18C425.397 460.818 425.151 460.442 424.906 460.066C424.183 457.883 424.082 455.7 424.4 453.546C425.946 446.013 433.345 438.205 439.298 436.239C439.501 436.167 439.674 436.08 439.847 435.964C439.688 436.065 459.428 465.85 460.598 468.958L460.613 468.944ZM436.437 430.803C437.261 432.06 431.163 434.822 430.397 435.4C426.524 438.335 423.648 443.381 421.481 447.603C419.27 451.897 418.302 456.481 419.602 460.862C418.2 460.428 416.799 459.98 415.397 459.546C415.05 459.112 414.732 458.649 414.429 458.187C414.414 458.086 414.429 457.984 414.386 457.869C412.695 451.319 412.68 447.704 415.961 441.892C417.377 439.376 418.807 436.918 420.368 434.576C423.677 430.427 427.68 427.145 432.261 424.499C433.663 426.581 435.05 428.692 436.452 430.788L436.437 430.803ZM412.695 396.247C414.674 399.037 416.64 401.828 418.605 404.633C421.741 409.1 424.66 413.727 428.114 417.935C428.403 418.383 428.706 418.831 428.966 419.294C429.212 419.727 429.457 420.176 429.689 420.638C428.619 421.535 425.18 423.038 424.775 423.299C423.229 424.253 421.813 425.858 420.513 427.116C417.637 429.877 414.949 432.885 412.666 436.152C408.475 442.152 405.209 449.815 407.695 457.146C399.92 454.688 392.132 452.244 384.357 449.801C382.088 449.092 379.82 448.398 377.536 447.69C377.493 447.574 377.479 447.444 377.435 447.329C377.305 444.422 376.799 441.545 376.973 438.538C377.305 432.754 378.794 427.289 381.207 422.026C386.351 410.792 395.022 401.221 404.646 393.601C404.834 393.587 405.007 393.529 405.152 393.428C406.38 392.56 407.608 391.967 409.01 391.49C410.209 393.138 411.611 394.743 412.695 396.261V396.247ZM395.86 372.882C399.357 377.668 402.811 382.454 406.264 387.268C405.975 387.384 405.701 387.514 405.426 387.659C404.79 387.933 404.183 388.223 403.62 388.613C384.646 398.04 366.236 423.66 371.034 445.695C367.493 444.61 363.953 443.497 360.413 442.413C359.213 439.478 357.985 436.571 356.843 433.607C354.083 420.523 358.924 407.365 365.499 395.842C367.84 391.75 370.456 387.485 374.184 384.507C379.112 380.574 384.718 377.075 390.398 374.342C391.062 374.024 395.34 372.159 395.889 372.911L395.86 372.882ZM389.545 368.27V368.313C389.299 368.429 389.111 368.602 388.996 368.805C388.447 369.152 387.97 369.484 387.681 369.629C383.88 371.436 380.383 373.894 376.944 376.265C373.057 378.955 369.343 382.005 366.323 385.663C364.849 387.442 363.548 389.408 362.363 391.389C353.274 406.209 346.973 423.443 355.196 439.853C355.297 440.2 355.398 440.547 355.499 440.894C351.569 439.694 347.638 438.494 343.708 437.28C336.829 435.169 330.167 432.465 323.332 430.253C319.893 429.14 316.41 428.128 312.856 427.405C312.205 427.275 310.587 427.289 310.081 426.913C309.821 426.711 309.604 426.393 309.416 426.002C308.983 425.077 308.781 423.79 308.593 423.053C307.422 418.31 308.275 412.73 308.737 407.929C310.023 394.367 315.702 381.586 323.621 370.612C329.589 362.356 336.656 354.737 344.329 348.057C351.439 341.869 359.083 338.182 367.551 334.669C373.866 343.127 380.138 351.57 386.395 360.043C386.481 360.78 386.929 361.287 387.507 361.547C388.88 363.412 390.267 365.277 391.64 367.142C390.947 367.518 390.282 367.952 389.53 368.27H389.545ZM289.373 434.345C287.61 421.723 285.761 409.231 285.327 396.348C285.024 387.514 285.096 378.68 285.544 369.86C286.151 357.903 284.821 348.766 295.428 340.683C303.882 334.249 314.33 331.126 324.098 327.295C333.549 323.622 343.101 320.282 352.768 317.246C360.586 314.788 368.519 311.015 376.713 312.432C382.262 321.598 383.635 330.562 384.704 341.291C385.065 344.934 385.369 348.578 385.687 352.221C385.557 352.033 385.412 351.86 385.282 351.657C382.912 348.173 380.484 344.732 377.984 341.334C376.337 339.093 374.661 336.866 372.941 334.654C372.146 333.642 371.381 332.673 370.759 331.56C370.311 330.736 370.326 330.562 369.3 330.403C364.386 329.666 358.765 331.415 354.343 333.382C349.257 335.637 344.604 338.833 340.341 342.375C332.003 349.286 324.893 357.643 318.549 366.39C310.688 377.234 304.763 389.726 302.625 403.028C301.873 407.741 301.599 412.527 301.888 417.284C302.032 419.67 302.307 422.041 302.726 424.383C303.087 426.393 303.13 428.518 304.229 430.268C304.373 430.499 304.547 430.716 304.734 430.933C305.963 432.35 307.408 432.61 309.026 433.289C310.645 433.969 312.191 434.634 313.882 435.169C317.682 436.355 321.569 437.28 325.37 438.451L326.829 438.899C323.376 440.808 319.864 442.572 316.223 444.22C311.194 446.49 306.382 449.497 301.064 451.088C294.402 453.083 291.628 451.493 290.79 444.972C290.342 441.415 289.85 437.858 289.359 434.33L289.373 434.345Z" fill="black"/>
<path d="M439.859 435.95C439.686 436.065 439.512 436.167 439.31 436.224C433.342 438.205 425.958 445.998 424.411 453.531C424.339 453.994 424.296 454.471 424.281 454.934C435.611 458.866 447.099 462.365 458.703 465.488C453.486 456.842 439.729 436.036 439.859 435.95Z" fill="#E4E4E4"/>
<path d="M458.69 465.503C447.086 462.394 435.598 458.895 424.268 454.948C424.167 456.64 424.355 458.36 424.919 460.066C425.15 460.442 425.395 460.804 425.656 461.18C425.656 461.194 425.684 461.209 425.699 461.223C425.829 461.397 425.945 461.599 426.06 461.787C426.421 462.293 426.797 462.785 427.187 463.276C432.447 464.997 437.534 467.165 442.823 468.799C447.707 470.317 452.534 471.879 457.649 472.023C458.603 472.052 459.687 472.009 460.323 471.301C460.568 471.04 460.698 470.708 460.77 470.361C460.857 469.898 460.785 469.392 460.626 468.944C460.438 468.438 459.73 467.194 458.704 465.503H458.69Z" fill="white"/>
<path d="M421.467 447.618C423.649 443.396 426.524 438.35 430.383 435.415C431.148 434.836 437.247 432.06 436.423 430.817C435.021 428.721 433.648 426.61 432.232 424.528C427.651 427.173 423.663 430.456 420.339 434.605C418.779 436.947 417.363 439.405 415.932 441.921C413.996 445.362 413.23 448.037 413.259 451.001C415.296 451.767 417.348 452.519 419.4 453.256C419.805 451.362 420.513 449.468 421.452 447.632L421.467 447.618Z" fill="#007CDC"/>
<path d="M419.415 453.242C417.363 452.505 415.311 451.753 413.273 450.986C413.288 453.025 413.678 455.208 414.372 457.883C414.401 457.984 414.401 458.086 414.415 458.201C414.719 458.664 415.036 459.127 415.383 459.56C416.785 459.994 418.187 460.442 419.588 460.876C418.837 458.36 418.866 455.787 419.415 453.227V453.242Z" fill="#007CDC"/>
<path d="M412.655 436.152C414.938 432.87 417.626 429.877 420.502 427.116C421.817 425.858 423.219 424.253 424.765 423.299C425.169 423.053 428.609 421.535 429.678 420.638C429.432 420.176 429.201 419.727 428.955 419.294C428.681 418.831 428.392 418.383 428.103 417.935C424.649 413.727 421.73 409.1 418.594 404.633C416.629 401.828 414.664 399.037 412.684 396.247C411.615 394.729 410.199 393.124 408.999 391.476C407.597 391.953 406.369 392.531 405.141 393.413C404.996 393.514 404.808 393.572 404.635 393.587C395.011 401.221 386.355 410.778 381.196 422.012C379.216 426.32 377.887 430.759 377.266 435.4C387.005 440.201 396.962 444.581 407.092 448.586C407.858 444.119 410.068 439.825 412.641 436.138L412.655 436.152Z" fill="#E4E4E4"/>
<path d="M407.118 448.601C396.989 444.61 387.032 440.215 377.292 435.415C377.162 436.441 377.047 437.482 376.989 438.538C376.816 441.545 377.321 444.422 377.451 447.329C377.48 447.444 377.509 447.574 377.552 447.69C379.821 448.398 382.104 449.078 384.373 449.801C392.162 452.244 399.937 454.688 407.711 457.146C406.743 454.312 406.656 451.42 407.133 448.601H407.118Z" fill="white"/>
<path d="M403.605 388.599C404.169 388.208 404.79 387.919 405.411 387.644C405.686 387.5 405.975 387.37 406.249 387.254C402.796 382.454 399.328 377.654 395.845 372.868C395.296 372.116 391.019 373.981 390.354 374.299C384.675 377.046 379.082 380.545 374.14 384.463C370.412 387.442 367.782 391.693 365.455 395.799C360.47 404.532 356.496 414.219 356.062 424.079C360.889 426.87 365.788 429.545 370.759 432.118C373.649 414.002 388.432 396.117 403.605 388.584V388.599Z" fill="#007CDC"/>
<path d="M370.77 432.133C365.814 429.574 360.915 426.899 356.074 424.094C355.929 427.246 356.146 430.412 356.825 433.579C357.967 436.543 359.195 439.463 360.395 442.384C363.935 443.468 367.475 444.581 371.016 445.666C370.048 441.242 370.048 436.673 370.77 432.118V432.133Z" fill="#007CDC"/>
<path d="M362.362 391.374C363.547 389.394 364.847 387.427 366.321 385.649C369.342 381.991 373.055 378.94 376.943 376.251C380.382 373.88 383.893 371.422 387.679 369.615C387.968 369.484 388.445 369.152 388.994 368.79C389.095 368.588 389.298 368.415 389.558 368.299V368.255C390.28 367.937 390.96 367.504 391.653 367.128C390.28 365.263 388.893 363.397 387.52 361.532C386.928 361.272 386.494 360.766 386.408 360.029C380.151 351.57 373.879 343.112 367.564 334.654C359.096 338.168 351.452 341.854 344.342 348.043C336.654 354.722 329.602 362.342 323.634 370.598C318.62 377.538 314.501 385.23 311.828 393.37C324.342 403.78 337.608 413.062 351.452 421.361C352.044 410.951 356.654 400.686 362.362 391.374Z" fill="#E4E4E4"/>
<path d="M351.452 421.361C337.609 413.062 324.343 403.78 311.829 393.37C310.283 398.083 309.213 402.941 308.751 407.915C308.288 412.73 307.436 418.296 308.606 423.038C308.794 423.776 308.996 425.063 309.43 425.988C309.603 426.378 309.82 426.696 310.095 426.899C310.6 427.275 312.219 427.26 312.869 427.39C316.41 428.113 319.907 429.125 323.346 430.239C330.181 432.451 336.857 435.155 343.721 437.265C347.652 438.465 351.582 439.68 355.513 440.88C355.412 440.533 355.311 440.186 355.209 439.839C352.146 433.738 351.105 427.52 351.467 421.361H351.452Z" fill="white"/>
<path d="M384.701 341.305C383.632 330.577 382.259 321.613 376.71 312.446C368.517 311.029 360.583 314.803 352.765 317.261C343.098 320.297 333.532 323.637 324.095 327.309C314.341 331.141 303.879 334.264 295.425 340.698C284.833 348.766 286.148 357.903 285.541 369.875C285.093 378.694 285.021 387.543 285.324 396.363C285.483 401.105 285.845 405.804 286.307 410.46C291.264 412.715 296.567 413.669 301.798 412.455C301.856 409.303 302.116 406.165 302.622 403.057C304.761 389.77 310.685 377.263 318.546 366.419C324.89 357.672 332.014 349.315 340.338 342.404C344.615 338.862 349.254 335.666 354.341 333.411C358.762 331.444 364.384 329.68 369.311 330.432C370.323 330.591 370.308 330.765 370.771 331.589C371.392 332.702 372.158 333.671 372.953 334.683C374.658 336.881 376.334 339.107 377.996 341.363C380.496 344.761 382.924 348.202 385.294 351.686C385.424 351.874 385.568 352.062 385.698 352.25C385.38 348.607 385.077 344.963 384.716 341.319L384.701 341.305Z" fill="#007CDC"/>
<path d="M286.312 410.46C287.122 418.455 288.263 426.378 289.376 434.359C289.867 437.887 290.359 441.444 290.807 445.001C291.63 451.521 294.405 453.112 301.081 451.117C306.399 449.526 311.196 446.504 316.24 444.249C319.867 442.615 323.393 440.837 326.846 438.928L325.387 438.48C321.572 437.309 317.699 436.383 313.899 435.198C312.208 434.677 310.647 433.998 309.043 433.318C307.425 432.639 305.965 432.364 304.751 430.962C304.564 430.745 304.405 430.513 304.246 430.296C303.133 428.547 303.104 426.436 302.743 424.412C302.324 422.07 302.049 419.684 301.905 417.313C301.804 415.694 301.804 414.074 301.832 412.455C296.601 413.684 291.298 412.715 286.341 410.46H286.312Z" fill="#007CDC"/>
<path d="M197.135 428.113C195.82 424.181 189.693 422.561 186.456 421.058C173.856 415.202 160.561 410.619 147.151 407.033L145.503 402.291L140.446 387.774C135.431 373.345 130.388 358.915 125.273 344.515C120.157 330.1 115.013 315.714 109.912 301.299C107.137 293.448 104.652 285.033 99.3627 278.454C98.4523 277.312 97.3829 276.184 95.9668 275.809C94.1894 275.346 92.2819 276.228 91.0391 277.572C89.4495 279.293 88.4814 281.78 87.6143 283.934C81.3428 299.477 75.2591 315.092 69.5077 330.837C63.7419 346.611 58.2941 362.501 53.3231 378.535C50.8376 386.545 48.4677 394.599 46.2423 402.681C46.0255 403.476 45.8232 404.257 45.6209 405.038L43.2799 413.265L43.3088 413.236C43.2365 413.453 43.1787 413.669 43.092 413.886C42.5718 415.347 42.0805 416.807 41.5747 418.267C31.0547 422.33 20.9971 427.246 11.5175 433.42C5.95399 437.034 -3.39555 442.138 1.19974 450.119C2.91937 453.097 6.04069 454.645 9.06087 455.946C15.3469 458.649 21.8641 460.905 28.3813 462.973C41.7481 467.223 55.2739 470.968 68.7274 474.915C92.2096 481.797 114.03 485.904 137.599 476.578C147.613 472.616 156.154 466.703 164.231 459.676C172.902 452.143 183.306 446.707 191.572 438.726C194.159 436.225 198.508 432.277 197.107 428.084L197.135 428.113ZM93.1634 283.79C93.4235 283.385 93.7992 283.038 94.2182 282.835C94.5362 282.676 94.883 282.604 95.2443 282.633C96.198 282.734 96.8627 283.573 97.4118 284.368C100.316 288.59 101.906 293.404 103.582 298.248C105.389 303.482 106.646 308.875 108.365 314.123C108.206 314.731 108.033 315.323 107.831 315.916C107.744 316.119 107.657 316.321 107.585 316.538C107.585 316.552 107.585 316.581 107.585 316.596C107.441 317.015 107.282 317.434 107.123 317.839C105.779 319.704 104.088 321.092 102.166 322.104C95.172 325.3 84.5219 323.955 79.4064 320.311C79.233 320.196 79.0451 320.109 78.8573 320.037C79.0307 320.095 91.3859 286.58 93.1923 283.79H93.1634ZM76.7041 325.849C77.2243 324.447 83.0768 327.729 83.9872 328.003C88.6403 329.391 94.4061 328.726 99.1026 328.003C103.871 327.252 108.134 325.329 110.909 321.685C111.386 323.073 111.848 324.461 112.325 325.864C112.18 326.398 111.992 326.933 111.805 327.454C111.732 327.526 111.646 327.584 111.573 327.671C107.282 332.905 104.391 335.045 97.7587 335.84C94.8974 336.187 92.0651 336.476 89.2617 336.606C83.9583 336.375 78.944 335.088 74.1175 332.963C74.9701 330.591 75.8515 328.235 76.7186 325.864L76.7041 325.849ZM62.8749 365.436C63.9587 362.197 65.0425 358.944 66.1407 355.706C67.8893 350.544 69.8979 345.455 71.2418 340.177C71.4441 339.671 71.6175 339.18 71.8343 338.674C72.0366 338.211 72.2678 337.763 72.4845 337.3C73.8429 337.633 77.0943 339.527 77.5278 339.7C79.2185 340.38 81.3428 340.582 83.1202 340.886C87.0508 341.565 91.0536 341.97 95.0419 341.883C102.354 341.724 110.461 339.83 114.897 333.498C117.513 341.218 120.143 348.954 122.773 356.674C123.539 358.93 124.333 361.171 125.099 363.412C125.027 363.513 124.94 363.6 124.868 363.701C122.614 365.523 120.576 367.634 118.062 369.268C113.206 372.42 107.917 374.444 102.238 375.615C90.1287 378.102 77.311 376.757 65.4616 373.504C65.3315 373.359 65.187 373.244 65.0136 373.186C63.583 372.709 62.3836 372.058 61.1697 371.22C61.7911 369.282 62.2535 367.2 62.846 365.436H62.8749ZM53.9733 392.835C55.7652 387.196 57.586 381.557 59.4212 375.933C59.6813 376.092 59.9559 376.251 60.2304 376.381C60.8229 376.728 61.4154 377.061 62.0657 377.278C80.8803 387.023 112.412 386.733 127.339 369.86C128.553 373.359 129.752 376.873 130.966 380.372C129.319 383.075 127.686 385.779 125.966 388.454C117.05 398.416 103.582 402.276 90.4033 403.794C85.7213 404.329 80.7358 404.734 76.1261 403.476C70.0424 401.814 63.9153 399.37 58.3519 396.406C57.7016 396.059 53.6699 393.702 53.9589 392.82L53.9733 392.835ZM49.2046 408.06C49.7538 407.554 49.8983 406.903 49.7682 406.267C50.4618 404.055 51.141 401.828 51.8346 399.616C52.5427 399.948 53.2942 400.238 53.9878 400.657L54.0167 400.613C54.2623 400.758 54.508 400.816 54.7392 400.773C55.3461 401.004 55.8953 401.206 56.1843 401.351C59.8836 403.346 63.9298 404.734 67.8748 406.108C72.34 407.669 76.9931 408.84 81.7329 409.129C84.045 409.274 86.386 409.158 88.6837 408.941C105.995 407.525 123.625 402.421 131.992 386.083C132.209 385.794 132.44 385.504 132.657 385.23C134.015 389.105 135.359 392.994 136.703 396.883C139.058 403.679 140.821 410.662 143.076 417.486C144.217 420.928 145.46 424.325 146.963 427.622C147.237 428.229 148.22 429.53 148.206 430.152C148.206 430.485 148.061 430.846 147.859 431.222C147.368 432.118 146.457 433.044 145.966 433.622C142.845 437.381 137.83 439.969 133.683 442.442C121.992 449.411 108.322 452.389 94.7963 452.476C84.6231 452.534 74.2909 451.348 64.3778 449.078C55.1872 446.982 47.7018 443.006 39.8551 438.234C41.6903 432.248 43.54 426.277 45.3897 420.291H45.4186C46.2856 419.901 46.3868 418.947 46.04 418.195C47.0804 414.812 48.1208 411.414 49.1757 408.031L49.2046 408.06ZM186.139 436.832C181.904 440.634 177.049 443.671 172.396 446.938C163.437 453.228 155.893 461.31 146.414 466.862C135.764 473.093 123.582 476.824 111.256 477.561C99.0881 478.284 87.7733 475.537 76.1839 472.168C63.0628 468.351 49.9127 464.577 36.8205 460.645C31.098 458.924 25.4045 457.117 19.7832 455.122C16.8931 454.11 12.2256 453.256 9.85565 451.232C1.54656 444.148 8.42504 441.458 12.818 438.422C21.4595 432.436 30.6501 427.231 40.1586 422.749C39.8117 423.805 39.4649 424.846 39.1326 425.901C38.2944 428.562 37.4996 431.236 36.7338 433.911C36.3725 435.155 36.0546 436.34 35.5199 437.497C35.1298 438.35 34.9708 438.451 35.4477 439.362C37.7598 443.772 42.4996 447.256 46.6902 449.671C51.5167 452.447 56.8345 454.312 62.2246 455.657C72.7302 458.302 83.6693 459.112 94.4639 459.054C107.86 458.996 121.429 456.394 133.423 450.264C137.671 448.095 141.688 445.478 145.359 442.442C147.194 440.923 148.943 439.29 150.59 437.569C152.006 436.094 153.682 434.808 154.434 432.885C154.535 432.624 154.622 432.364 154.68 432.089C155.099 430.268 154.448 428.937 154.044 427.231C153.639 425.525 153.263 423.877 152.685 422.2C151.659 419.221 150.518 416.301 149.42 413.351C160.778 416.315 171.76 420.118 182.569 424.875C184.274 425.626 190.04 427.202 190.647 428.605C191.933 431.54 187.93 435.256 186.167 436.846L186.139 436.832Z" fill="black"/>
<path d="M107.093 317.854C107.266 317.449 107.411 317.029 107.555 316.61C107.555 316.596 107.555 316.567 107.555 316.552C107.628 316.335 107.7 316.133 107.801 315.931C108.003 315.338 108.177 314.745 108.336 314.138C106.616 308.889 105.359 303.482 103.553 298.262C102.454 295.082 101.385 291.93 99.9688 288.937C102.021 298.985 103.914 309.164 105.836 319.357C106.269 318.895 106.688 318.417 107.078 317.882L107.093 317.854Z" fill="#007CDC"/>
<path d="M99.9826 288.922C99.2312 287.346 98.3931 285.828 97.396 284.368C96.8468 283.587 96.1821 282.734 95.2284 282.633C94.8671 282.59 94.5203 282.676 94.2024 282.835C93.7833 283.038 93.4076 283.399 93.1475 283.79C91.3412 286.58 78.9859 320.109 78.8125 320.037C79.0004 320.109 79.1882 320.196 79.3616 320.312C84.4771 323.955 95.1417 325.314 102.121 322.104C103.494 321.381 104.751 320.456 105.835 319.314C103.913 309.121 102.02 298.942 99.9682 288.893L99.9826 288.922Z" fill="#007CDC"/>
<path d="M106.977 325.213C104.679 326.644 101.991 327.541 99.1011 327.989C94.4047 328.726 88.6389 329.391 83.9858 327.989C83.0754 327.714 77.2229 324.432 76.7027 325.835C75.8356 328.206 74.9541 330.563 74.1016 332.934C78.9425 335.059 83.9569 336.346 89.2458 336.577C92.0637 336.447 94.8815 336.143 97.7427 335.811C102.497 335.247 105.344 333.96 108.147 331.343C107.743 329.29 107.352 327.252 106.962 325.198L106.977 325.213Z" fill="#E4E4E4"/>
<path d="M111.556 327.656C111.628 327.57 111.715 327.512 111.787 327.439C111.99 326.919 112.178 326.384 112.308 325.849C111.831 324.461 111.368 323.073 110.892 321.671C109.793 323.116 108.464 324.273 106.961 325.213C107.351 327.266 107.741 329.305 108.146 331.358C109.244 330.331 110.342 329.131 111.556 327.656Z" fill="white"/>
<path d="M118.073 369.282C120.587 367.648 122.625 365.537 124.879 363.716C124.951 363.614 125.038 363.528 125.11 363.426C124.33 361.171 123.55 358.93 122.784 356.689C120.154 348.968 117.538 341.233 114.908 333.512C113.463 335.58 111.613 337.17 109.547 338.384C111.7 349.055 114.027 359.667 116.758 370.092C117.191 369.831 117.639 369.571 118.073 369.282Z" fill="#007CDC"/>
<path d="M109.548 338.37C105.271 340.886 99.9819 341.782 95.0542 341.883C91.0659 341.97 87.0631 341.58 83.1325 340.886C81.3406 340.568 79.2164 340.38 77.5401 339.7C77.1066 339.527 73.8552 337.633 72.4969 337.3C72.2656 337.763 72.0489 338.225 71.8466 338.674C71.6298 339.165 71.442 339.671 71.2541 340.177C69.8957 345.455 67.9016 350.544 66.153 355.706C65.0548 358.944 63.971 362.183 62.8872 365.436C62.2947 367.2 61.8323 369.282 61.2109 371.219C62.4248 372.058 63.6242 372.709 65.0548 373.186C65.2282 373.244 65.3727 373.359 65.5028 373.504C77.3378 376.771 90.1699 378.102 102.28 375.615C107.438 374.559 112.294 372.767 116.788 370.077C114.057 359.653 111.73 349.04 109.577 338.37H109.548Z" fill="#007CDC"/>
<path d="M125.982 388.468C127.701 385.794 129.32 383.075 130.981 380.386C129.768 376.887 128.568 373.374 127.354 369.875C124.869 372.694 121.906 375.022 118.641 376.945C120.013 381.803 121.487 386.618 123.077 391.36C124.088 390.449 125.071 389.509 125.996 388.468H125.982Z" fill="white"/>
<path d="M118.626 376.945C102.254 386.56 77.7456 385.418 62.0667 377.292C61.4164 377.061 60.824 376.743 60.2315 376.396C59.9569 376.265 59.6824 376.106 59.4222 375.947C57.587 381.572 55.7662 387.196 53.9744 392.849C53.6998 393.731 57.7171 396.088 58.3674 396.435C63.9308 399.399 70.0579 401.857 76.1416 403.505C80.7369 404.763 85.7223 404.358 90.4188 403.823C102.225 402.464 114.277 399.211 123.063 391.375C121.473 386.632 119.999 381.818 118.626 376.959V376.945Z" fill="#E4E4E4"/>
<path d="M145.983 433.622C146.474 433.044 147.385 432.118 147.876 431.222C148.078 430.846 148.208 430.485 148.223 430.152C148.223 429.53 147.255 428.229 146.98 427.622C145.477 424.325 144.22 420.928 143.093 417.486C140.839 410.662 139.076 403.679 136.72 396.883C135.376 392.994 134.018 389.119 132.674 385.23C132.457 385.519 132.226 385.808 132.009 386.083C130.03 389.943 127.515 393.167 124.625 395.871C129.625 409.925 135.81 423.357 143.758 435.863C144.567 435.155 145.333 434.432 145.983 433.622Z" fill="#007CDC"/>
<path d="M124.607 395.871C115.286 404.604 101.905 407.872 88.6825 408.942C86.3848 409.144 84.0294 409.26 81.7317 409.129C77.0064 408.84 72.3389 407.655 67.8736 406.108C63.9286 404.734 59.868 403.346 56.1831 401.351C55.9085 401.206 55.3594 401.004 54.738 400.773C54.5068 400.816 54.2612 400.758 54.0155 400.613L53.9866 400.657C53.293 400.238 52.5415 399.963 51.8335 399.616C51.1398 401.828 50.4606 404.055 49.767 406.267C49.8971 406.903 49.767 407.554 49.2034 408.06C48.1486 411.443 47.1081 414.841 46.0677 418.224C46.4145 418.976 46.3133 419.93 45.4463 420.306H45.4174C43.5677 426.292 41.718 432.263 39.8828 438.263C47.7295 443.02 55.2149 447.01 64.4055 449.107C74.333 451.362 84.6508 452.563 94.824 452.505C108.35 452.418 122.006 449.439 133.711 442.471C136.976 440.519 140.762 438.48 143.754 435.878C135.806 423.385 129.621 409.939 124.621 395.886L124.607 395.871Z" fill="#007CDC"/>
<path d="M110.176 457.724C104.973 458.592 99.6989 459.025 94.4389 459.04C83.6443 459.083 72.6908 458.274 62.1996 455.642C56.8096 454.283 51.5062 452.432 46.6652 449.656C42.4601 447.242 37.7203 443.743 35.4227 439.348C34.9458 438.437 35.1047 438.335 35.4949 437.482C36.0296 436.326 36.3475 435.126 36.7088 433.897C37.4746 431.222 38.2839 428.547 39.1076 425.887C39.4399 424.831 39.7867 423.79 40.1336 422.735C30.6251 427.231 21.4345 432.436 12.793 438.408C8.41449 441.444 1.53601 444.133 9.83065 451.218C12.2005 453.242 16.8825 454.095 19.7582 455.107C25.3939 457.102 31.0875 458.91 36.7955 460.63C49.8877 464.563 63.0378 468.337 76.1589 472.154C87.7483 475.522 99.0631 478.27 111.231 477.547C123.557 476.809 135.739 473.093 146.389 466.847C150.536 464.418 154.308 461.498 157.993 458.462C142.892 462.264 125.985 461.642 110.147 457.724H110.176Z" fill="#E4E4E4"/>
<path d="M186.139 436.817C187.902 435.241 191.904 431.511 190.618 428.576C189.997 427.174 184.231 425.598 182.54 424.846C171.731 420.074 160.749 416.286 149.391 413.322C150.489 416.272 151.631 419.192 152.657 422.171C153.235 423.848 153.61 425.496 154.015 427.202C154.42 428.909 155.07 430.239 154.651 432.06C154.593 432.335 154.506 432.61 154.405 432.856C153.654 434.779 151.963 436.065 150.561 437.54C148.914 439.261 147.165 440.895 145.33 442.413C141.66 445.449 137.642 448.066 133.394 450.235C126.111 453.965 118.235 456.365 110.172 457.71C126.01 461.628 142.917 462.264 158.018 458.447C162.758 454.543 167.353 450.452 172.396 446.909C177.035 443.642 181.905 440.605 186.139 436.803V436.817Z" fill="white"/>
</g>
<defs>
<clipPath id="clip0_294_120">
<rect width="467" height="488" fill="white"/>
</clipPath>
</defs>
</svg>
