<svg width="20" height="20" viewBox="0 0 20 20" fill="none" xmlns="http://www.w3.org/2000/svg">
<g clip-path="url(#clip0_57_268)">
<path d="M10.5488 4.82725L19.7738 14.0778C20.0759 14.3809 20.0754 14.8716 19.7723 15.1742C19.4692 15.4765 18.9782 15.4758 18.6759 15.1726L9.99997 6.47268L1.32406 15.173C1.02172 15.476 0.531057 15.4768 0.227934 15.1745C0.0759811 15.0228 3.78949e-06 14.8241 3.78081e-06 14.6254C3.77214e-06 14.4272 0.0754737 14.2293 0.226372 14.0779L9.45114 4.82725C9.59637 4.68128 9.79403 4.59936 9.99997 4.59936C10.2059 4.59936 10.4033 4.68151 10.5488 4.82725Z" fill="white"/>
</g>
<defs>
<clipPath id="clip0_57_268">
<rect width="20" height="20" fill="white" transform="matrix(-4.37114e-08 -1 -1 4.37114e-08 20 20)"/>
</clipPath>
</defs>
</svg>
