<svg width="30" height="30" viewBox="0 0 30 30" fill="none" xmlns="http://www.w3.org/2000/svg">
<path d="M16.7697 15.0051L24.6447 7.14261C24.8801 6.90724 25.0124 6.58799 25.0124 6.25511C25.0124 5.92224 24.8801 5.60299 24.6447 5.36761C24.4094 5.13223 24.0901 5 23.7572 5C23.4244 5 23.1051 5.13223 22.8697 5.36761L15.0072 13.2426L7.14475 5.36761C6.90937 5.13223 6.59012 5 6.25725 5C5.92437 5 5.60513 5.13223 5.36975 5.36761C5.13437 5.60299 5.00213 5.92224 5.00213 6.25511C5.00213 6.58799 5.13437 6.90724 5.36975 7.14261L13.2447 15.0051L5.36975 22.8676C5.25259 22.9838 5.15959 23.1221 5.09613 23.2744C5.03267 23.4267 5 23.5901 5 23.7551C5 23.9201 5.03267 24.0835 5.09613 24.2358C5.15959 24.3882 5.25259 24.5264 5.36975 24.6426C5.48595 24.7598 5.6242 24.8528 5.77653 24.9162C5.92885 24.9797 6.09223 25.0124 6.25725 25.0124C6.42226 25.0124 6.58564 24.9797 6.73797 24.9162C6.89029 24.8528 7.02854 24.7598 7.14475 24.6426L15.0072 16.7676L22.8697 24.6426C22.986 24.7598 23.1242 24.8528 23.2765 24.9162C23.4289 24.9797 23.5922 25.0124 23.7572 25.0124C23.9223 25.0124 24.0856 24.9797 24.238 24.9162C24.3903 24.8528 24.5285 24.7598 24.6447 24.6426C24.7619 24.5264 24.8549 24.3882 24.9184 24.2358C24.9818 24.0835 25.0145 23.9201 25.0145 23.7551C25.0145 23.5901 24.9818 23.4267 24.9184 23.2744C24.8549 23.1221 24.7619 22.9838 24.6447 22.8676L16.7697 15.0051Z" fill="#0D22FF"/>
</svg>
