<svg width="38" height="38" viewBox="0 0 38 38" fill="none" xmlns="http://www.w3.org/2000/svg">
<g id="Close">
<path id="Vector" d="M21.2166 19.0007L31.1916 9.02565C31.8249 8.39232 31.8249 7.44232 31.1916 6.80898C30.5583 6.17565 29.6083 6.17565 28.9749 6.80898L18.9999 16.784L9.02492 6.80898C8.39159 6.17565 7.44159 6.17565 6.80825 6.80898C6.17492 7.44232 6.17492 8.39232 6.80825 9.02565L16.7833 19.0007L6.80825 28.9757C6.49159 29.2923 6.33325 29.609 6.33325 30.084C6.33325 31.034 6.96659 31.6673 7.91659 31.6673C8.39159 31.6673 8.70825 31.509 9.02492 31.1923L18.9999 21.2173L28.9749 31.1923C29.2916 31.509 29.6083 31.6673 30.0833 31.6673C30.5583 31.6673 30.8749 31.509 31.1916 31.1923C31.8249 30.559 31.8249 29.609 31.1916 28.9757L21.2166 19.0007Z" fill="#D90101"/>
</g>
</svg>
