<svg width="40" height="40" viewBox="0 0 40 40" fill="none" xmlns="http://www.w3.org/2000/svg">
<g clip-path="url(#clip0_12_86)">
<path fill-rule="evenodd" clip-rule="evenodd" d="M20 40C8.95606 40 0 31.0439 0 20C0 8.95606 8.95606 0 20 0C31.0439 0 40 8.95606 40 20C40 31.0439 31.0439 40 20 40ZM20 6.99118C25.4712 6.99118 29.9063 11.4263 29.9063 16.8975C29.9063 22.3685 20 33.0087 20 33.0087C20 33.0087 10.0937 22.3685 10.0937 16.8975C10.0937 11.4263 14.5288 6.99118 20 6.99118ZM20 12.9616C22.0743 12.9616 23.7565 14.6438 23.7565 16.7183C23.7565 18.7926 22.0743 20.4748 20 20.4748C17.9257 20.4748 16.2435 18.7926 16.2435 16.7183C16.2435 14.6438 17.9257 12.9616 20 12.9616Z" fill="#FBB040"/>
</g>
<defs>
<clipPath id="clip0_12_86">
<rect width="40" height="40" fill="white"/>
</clipPath>
</defs>
</svg>
