<svg width="226" height="40" viewBox="0 0 226 40" fill="none" xmlns="http://www.w3.org/2000/svg">
<path d="M26.651 37.1564H27.7186V28.5776H30.0723V27.6386H24.3102V28.5776H26.651V37.1564Z" fill="#000E46"/>
<path d="M30.3588 37.1564H31.2977V33.3879C31.2977 31.8187 32.0437 30.9827 33.3813 30.9827H33.4713V30.0438C32.661 30.0695 31.7607 30.3396 31.2591 31.3686V30.2367H30.3588V37.1564Z" fill="#000E46"/>
<path d="M40.909 30.2367H39.9572V31.6901C39.6228 30.9055 38.6067 30.0438 37.1276 30.0438C35.0183 30.0438 33.5392 31.6644 33.5392 33.6966C33.5392 35.6001 34.8768 37.3493 37.1276 37.3493C38.3623 37.3493 39.417 36.7705 39.9572 35.7287V37.1564H40.909V30.2367ZM34.4781 33.6966C34.4781 32.1531 35.6356 30.9184 37.2305 30.9184C38.4524 30.9184 39.3784 31.6258 39.7643 32.5776C39.9186 32.912 39.9958 33.2978 39.9829 33.6837C39.9829 34.0567 39.9058 34.4426 39.7514 34.777C39.3784 35.7545 38.4781 36.4619 37.2562 36.4619C35.3527 36.4619 34.4909 34.957 34.4781 33.7094V33.6966Z" fill="#000E46"/>
<path d="M42.9231 37.1564H43.862V30.9956H45.354V30.2367H43.862V29.7608C43.862 28.256 44.8781 28.256 45.354 28.2303V27.4714C44.608 27.4714 42.9231 27.5357 42.9231 29.6708V30.2367H41.907V30.9956H42.9231V37.1564Z" fill="#000E46"/>
<path d="M49.0719 30.9956V37.1564H50.0237V30.2367H47.0398V29.7608C47.0398 28.256 48.0559 28.256 48.5317 28.2303V27.4714C47.7858 27.4714 46.1009 27.5357 46.1009 29.6708V30.2367H45.0848V30.9956H46.1009V37.1564H47.0398V30.9956H49.0719ZM50.0237 28.9634V27.6386H49.0719V28.9634H50.0237Z" fill="#000E46"/>
<path d="M57.624 34.8155C57.3281 35.6516 56.4407 36.449 55.1159 36.4619C53.6239 36.4619 52.3892 35.33 52.3892 33.6966C52.3892 32.8991 52.7107 32.1531 53.1738 31.703C53.7525 31.1628 54.3185 30.9184 55.1288 30.9184C56.1063 30.9184 57.1995 31.4586 57.6368 32.629H58.6143C58.1384 30.9699 56.6465 30.0438 55.0902 30.0438C52.9937 30.0438 51.4374 31.6515 51.4374 33.6966C51.4374 35.5487 52.8136 37.3493 55.1545 37.3493C56.8137 37.3493 58.1642 36.2818 58.6143 34.8155H57.624Z" fill="#000E46"/>
<path d="M64.0056 37.1564H65.0732V28.5776H67.4269V27.6386H61.6648V28.5776H64.0056V37.1564Z" fill="#000E46"/>
<path d="M68.4419 28.9634H69.3936V27.6386H68.4419V28.9634ZM68.4419 37.1564H69.3936V30.2367H68.4419V37.1564Z" fill="#000E46"/>
<path d="M76.9921 34.8155C76.6963 35.6516 75.8088 36.449 74.484 36.4619C72.992 36.4619 71.7573 35.33 71.7573 33.6966C71.7573 32.8991 72.0789 32.1531 72.5419 31.703C73.1207 31.1628 73.6866 30.9184 74.4969 30.9184C75.4744 30.9184 76.5676 31.4586 77.0049 32.629H77.9824C77.5066 30.9699 76.0146 30.0438 74.4583 30.0438C72.3618 30.0438 70.8055 31.6515 70.8055 33.6966C70.8055 35.5487 72.1817 37.3493 74.5226 37.3493C76.1818 37.3493 77.5323 36.2818 77.9824 34.8155H76.9921Z" fill="#000E46"/>
<path d="M79.3072 37.1564H80.259V33.4779L83.5773 37.1564H84.6963L81.2108 33.2721L84.542 30.2367H83.3715L80.259 33.0792V27.6386H79.3072V37.1564Z" fill="#000E46"/>
<path d="M92.0623 33.9667C92.1652 32.8605 91.7794 31.793 90.9819 31.0213C90.326 30.3911 89.4257 30.0438 88.4482 30.0438C86.3774 30.0438 84.8083 31.6773 84.8083 33.7094C84.8083 35.4329 86.0559 37.3493 88.461 37.3493C89.1684 37.3493 89.8501 37.1564 90.4289 36.7834C91.0205 36.4104 91.5093 35.8445 91.8308 35.0985H90.8405C90.3903 35.9988 89.5286 36.5262 88.461 36.5262C87.2906 36.539 85.8115 35.703 85.76 33.9667H92.0623ZM85.7729 33.2078C85.8629 31.9474 86.969 30.8541 88.461 30.8541C89.8887 30.8155 91.0591 31.9988 91.1234 33.2078H85.7729Z" fill="#000E46"/>
<path d="M93.9521 37.1564H94.891V30.9956H96.4087V30.2367H94.891V27.6386H93.9521V30.2367H92.5888V30.9956H93.9521V37.1564Z" fill="#000E46"/>
<path d="M101.2 37.1564H105.895V36.2175H102.268V27.6386H101.2V37.1564Z" fill="#000E46"/>
<path d="M113.822 30.2367H112.87V31.6901C112.536 30.9055 111.52 30.0438 110.041 30.0438C107.931 30.0438 106.452 31.6644 106.452 33.6966C106.452 35.6001 107.79 37.3493 110.041 37.3493C111.275 37.3493 112.33 36.7705 112.87 35.7287V37.1564H113.822V30.2367ZM107.391 33.6966C107.391 32.1531 108.549 30.9184 110.144 30.9184C111.365 30.9184 112.291 31.6258 112.677 32.5776C112.832 32.912 112.909 33.2978 112.896 33.6837C112.896 34.0567 112.819 34.4426 112.664 34.777C112.291 35.7545 111.391 36.4619 110.169 36.4619C108.266 36.4619 107.404 34.957 107.391 33.7094V33.6966Z" fill="#000E46"/>
<path d="M117.264 37.1564H118.19L119.798 32.1146L121.431 37.1564H122.37L124.762 30.2367H123.772L121.881 35.9345L120.209 30.8541H119.425L117.765 35.9345L115.862 30.2367H114.859L117.264 37.1564Z" fill="#000E46"/>
<path d="M126.474 39.7802H127.503L131.452 30.2367H130.41L128.172 35.8316L125.998 30.2367H124.982L127.657 37.0278L126.474 39.7802Z" fill="#000E46"/>
<path d="M138.812 33.9667C138.915 32.8605 138.529 31.793 137.732 31.0213C137.076 30.3911 136.175 30.0438 135.198 30.0438C133.127 30.0438 131.558 31.6773 131.558 33.7094C131.558 35.4329 132.806 37.3493 135.211 37.3493C135.918 37.3493 136.6 37.1564 137.179 36.7834C137.77 36.4104 138.259 35.8445 138.581 35.0985H137.59C137.14 35.9988 136.278 36.5262 135.211 36.5262C134.04 36.539 132.561 35.703 132.51 33.9667H138.812ZM132.523 33.2078C132.613 31.9474 133.719 30.8541 135.211 30.8541C136.638 30.8155 137.809 31.9988 137.873 33.2078H132.523Z" fill="#000E46"/>
<path d="M140.162 37.1564H141.101V33.3879C141.101 31.8187 141.847 30.9827 143.184 30.9827H143.274V30.0438C142.464 30.0695 141.564 30.3396 141.062 31.3686V30.2367H140.162V37.1564Z" fill="#000E46"/>
<path d="M149.118 27.6386H148.038V37.1564H149.067L149.041 29.1435L154.687 37.1564H155.716V27.6386H154.687L154.7 35.5873L149.118 27.6386Z" fill="#000E46"/>
<path d="M164.322 33.9667C164.425 32.8605 164.039 31.793 163.242 31.0213C162.586 30.3911 161.686 30.0438 160.708 30.0438C158.637 30.0438 157.068 31.6773 157.068 33.7094C157.068 35.4329 158.316 37.3493 160.721 37.3493C161.428 37.3493 162.11 37.1564 162.689 36.7834C163.28 36.4104 163.769 35.8445 164.091 35.0985H163.1C162.65 35.9988 161.788 36.5262 160.721 36.5262C159.551 36.539 158.071 35.703 158.02 33.9667H164.322ZM158.033 33.2078C158.123 31.9474 159.229 30.8541 160.721 30.8541C162.149 30.8155 163.319 31.9988 163.383 33.2078H158.033Z" fill="#000E46"/>
<path d="M167.103 37.1564H168.029L169.637 32.1146L171.271 37.1564H172.21L174.602 30.2367H173.612L171.721 35.9345L170.049 30.8541H169.264L167.605 35.9345L165.701 30.2367H164.698L167.103 37.1564Z" fill="#000E46"/>
<path d="M180.371 37.1564H181.439V33.8123L184.5 27.6386H183.342L180.911 32.7834L178.468 27.6386H177.31L180.371 33.8123V37.1564Z" fill="#000E46"/>
<path d="M183.849 33.6966C183.849 35.6387 185.29 37.3365 187.515 37.3365C189.753 37.3365 191.193 35.6387 191.193 33.6966C191.193 31.7544 189.753 30.0438 187.515 30.0438C185.29 30.0438 183.849 31.7544 183.849 33.6837V33.6966ZM184.788 33.6966C184.788 32.1146 185.984 30.9313 187.515 30.9313C189.058 30.9313 190.242 32.1146 190.242 33.6966C190.242 35.2786 189.058 36.4619 187.515 36.4619C185.984 36.4619 184.788 35.2786 184.788 33.7094V33.6966Z" fill="#000E46"/>
<path d="M192.626 37.1564H193.565V33.3879C193.565 31.8187 194.311 30.9827 195.649 30.9827H195.739V30.0438C194.929 30.0695 194.028 30.3396 193.527 31.3686V30.2367H192.626V37.1564Z" fill="#000E46"/>
<path d="M196.797 37.1564H197.749V33.4779L201.067 37.1564H202.186L198.701 33.2721L202.032 30.2367H200.861L197.749 33.0792V27.6386H196.797V37.1564Z" fill="#000E46"/>
<path d="M14.4053 0H9.00329V14.1194C9.00329 14.6053 9.00329 15.2627 8.80322 15.8344C8.60314 16.3774 8.203 16.8061 7.37412 16.8061C6.23085 16.8061 5.91645 15.8344 5.80212 14.9769C5.77354 14.7482 5.74496 14.5482 5.74496 14.3481H0C0 14.9197 0.0571637 15.4628 0.142909 15.9773C1.05753 21.5507 6.63099 21.5507 7.11689 21.5507C8.54598 21.5507 10.0894 21.1506 11.3756 20.3217C12.2902 19.7787 13.262 18.7783 13.7193 17.8065C14.1766 16.8061 14.4053 15.4342 14.4053 12.7761V0Z" fill="#007CDC"/>
<path d="M34.1723 5.28765H29.4277V6.97398C28.7989 6.00219 27.3412 4.74459 24.7403 4.74459C20.5102 4.74459 16.7659 8.00292 16.7659 13.2048C16.7659 17.7493 19.7099 21.6936 24.7403 21.6936C26.5981 21.6936 28.5703 20.9791 29.4277 19.4357V21.1506H34.1723V5.28765ZM21.5105 13.262C21.5105 11.4613 22.711 9.17478 25.4262 9.17478C27.427 9.17478 28.5131 10.2895 29.0276 11.3756C29.342 12.033 29.4849 12.7475 29.4277 13.4621C29.3705 14.1766 29.1705 14.8626 28.7703 15.4914C28.1701 16.4632 27.1412 17.2634 25.4548 17.2634C22.5966 17.2634 21.5105 14.7482 21.5105 13.2906V13.262Z" fill="#007CDC"/>
<path d="M37.6336 21.1506H42.3782V12.7189C42.3782 12.233 42.3782 11.3756 42.7212 10.6039C43.0642 9.83216 43.7215 9.20336 45.0649 9.20336C46.2653 9.20336 46.837 9.80358 47.1514 10.5467C47.4372 11.2613 47.4372 12.0901 47.4372 12.5189V21.1506H52.1818V12.4903C52.1818 12.033 52.1818 11.2327 52.5248 10.5181C52.8392 9.80358 53.4965 9.20336 54.8113 9.20336C56.0403 9.20336 56.6405 9.74642 56.9264 10.4895C57.2408 11.2041 57.2408 12.0615 57.2408 12.7189V21.1506H61.9854V12.4903C61.9854 8.97471 61.7567 7.91718 60.2704 6.34518C58.9843 5.00183 57.2122 4.74459 56.0975 4.74459C54.4397 4.74459 53.1536 5.34481 52.2104 6.20227C51.7531 6.60241 51.3815 7.0883 51.0671 7.57419C50.7813 7.03114 50.4669 6.60241 50.1239 6.25943C48.952 5.03041 47.5801 4.74459 46.494 4.74459C44.8362 4.74459 43.7215 5.28765 43.0356 5.85928C42.3496 6.40234 42.0638 6.97398 42.0638 6.97398V5.28765H37.6336V21.1506Z" fill="#007CDC"/>
<path d="M81.0137 14.8626C81.3853 11.9472 80.7851 9.40343 78.7844 7.25979C77.2981 5.68779 75.2116 4.74459 72.7822 4.74459C67.9518 4.74459 64.4648 8.8318 64.4648 13.262C64.4648 17.978 68.3234 21.6651 72.8679 21.6651C74.4971 21.6651 76.0691 21.1792 77.3838 20.236C78.7272 19.3213 79.8419 17.9494 80.6136 16.1773H75.7547C75.183 17.0062 74.3827 17.6636 72.8679 17.6636C71.0101 17.6636 69.4095 16.5489 69.2094 14.8626H81.0137ZM69.2666 11.2613C69.3809 10.5181 70.3527 8.74605 72.8107 8.74605C75.2688 8.74605 76.2406 10.5181 76.3549 11.2613H69.2666Z" fill="#007CDC"/>
<path d="M95.2042 9.74642C94.804 5.57346 91.2027 4.74459 89.1163 4.74459C85.8293 4.74459 82.9711 6.83107 82.9711 10.118C82.9711 12.2616 84.6861 13.605 86.744 14.2624C89.7736 15.4342 90.9455 15.5771 90.9455 16.6632C90.9455 17.4349 90.088 17.8922 89.2877 17.8922C89.0877 17.8922 87.6872 17.8923 87.4871 16.4346H82.7711C83.1998 20.6075 86.8297 21.6936 89.2306 21.6936C92.7461 21.6936 95.6901 19.6357 95.6901 16.1488C95.6901 12.7189 92.8319 11.9186 90.1452 11.1755C88.8876 10.8039 87.7157 10.3181 87.7157 9.60351C87.7157 9.17478 88.0587 8.54598 89.0591 8.54598C90.4596 8.54598 90.5168 9.40343 90.5453 9.74642H95.2042Z" fill="#007CDC"/>
<path d="M112.057 21.1506L111.885 5.31623L116.458 21.1506H120.031L124.604 5.31623L124.432 21.1506H129.406V0H122.146L118.287 13.6336L114.315 0H107.083V21.1506H112.057Z" fill="#007CDC"/>
<path d="M148.728 14.8626C149.1 11.9472 148.5 9.40343 146.499 7.25979C145.013 5.68779 142.926 4.74459 140.497 4.74459C135.666 4.74459 132.179 8.8318 132.179 13.262C132.179 17.978 136.038 21.6651 140.582 21.6651C142.212 21.6651 143.784 21.1792 145.098 20.236C146.442 19.3213 147.556 17.9494 148.328 16.1773H143.469C142.897 17.0062 142.097 17.6636 140.582 17.6636C138.725 17.6636 137.124 16.5489 136.924 14.8626H148.728ZM136.981 11.2613C137.095 10.5181 138.067 8.74605 140.525 8.74605C142.983 8.74605 143.955 10.5181 144.069 11.2613H136.981Z" fill="#007CDC"/>
<path d="M168.035 0H163.29V6.63099C162.776 6.11652 161.432 4.74459 158.631 4.74459C154.601 4.74459 150.771 7.80285 150.771 13.1762C150.771 17.9494 153.915 21.6651 158.717 21.6651C161.918 21.6651 163.062 20.0931 163.519 19.4357V21.1506H168.035V0ZM155.516 13.1477C155.516 11.3184 156.802 9.17478 159.546 9.17478C160.661 9.17478 161.661 9.57493 162.376 10.2895C163.09 10.9754 163.547 11.9472 163.547 13.0905C163.605 14.2624 163.176 15.2913 162.433 16.0344C161.69 16.7776 160.632 17.2349 159.489 17.2349C157.259 17.2349 155.516 15.6057 155.516 13.1762V13.1477Z" fill="#007CDC"/>
<path d="M170.728 13.2048C170.728 17.092 173.501 21.6365 179.274 21.6365C185.048 21.6365 187.82 17.092 187.82 13.2048C187.82 9.31769 185.048 4.77317 179.274 4.77317C173.501 4.77317 170.728 9.31769 170.728 13.1762V13.2048ZM175.473 13.2048C175.473 10.8897 177.217 9.20336 179.274 9.20336C181.332 9.20336 183.076 10.8897 183.076 13.2048C183.076 15.52 181.332 17.2063 179.274 17.2063C177.217 17.2063 175.473 15.52 175.473 13.2334V13.2048Z" fill="#007CDC"/>
<path d="M192.986 21.1506H197.388L200.046 10.8897L202.761 21.1506H207.163L212.022 5.28765H207.134L204.762 15.1484L202.075 5.28765H198.074L195.473 15.1484L193.043 5.28765H188.127L192.986 21.1506Z" fill="#007CDC"/>
<path d="M225.33 9.74642C224.93 5.57346 221.328 4.74459 219.242 4.74459C215.955 4.74459 213.097 6.83107 213.097 10.118C213.097 12.2616 214.812 13.605 216.87 14.2624C219.899 15.4342 221.071 15.5771 221.071 16.6632C221.071 17.4349 220.214 17.8922 219.413 17.8922C219.213 17.8922 217.813 17.8923 217.613 16.4346H212.897C213.325 20.6075 216.955 21.6936 219.356 21.6936C222.872 21.6936 225.816 19.6357 225.816 16.1488C225.816 12.7189 222.958 11.9186 220.271 11.1755C219.013 10.8039 217.841 10.3181 217.841 9.60351C217.841 9.17478 218.184 8.54598 219.185 8.54598C220.585 8.54598 220.642 9.40343 220.671 9.74642H225.33Z" fill="#007CDC"/>
</svg>
