<svg width="18" height="18" viewBox="0 0 18 18" fill="none" xmlns="http://www.w3.org/2000/svg">
<g clip-path="url(#clip0_403_987)">
<path d="M7.434 4.53605C7.21913 2.06442 4.64063 0.851673 4.5315 0.802173C4.42949 0.754219 4.31517 0.738897 4.20413 0.758298C1.22738 1.25217 0.779625 2.98467 0.761625 3.05667C0.737135 3.15701 0.74103 3.26218 0.772875 3.36042C4.32337 14.3764 11.7023 16.4183 14.1278 17.0899C14.3145 17.1417 14.4686 17.1833 14.5856 17.2215C14.7191 17.2652 14.8642 17.2567 14.9918 17.1979C15.066 17.1642 16.8188 16.3384 17.2474 13.6452C17.2664 13.5276 17.2475 13.407 17.1934 13.3009C17.1551 13.2267 16.2383 11.4818 13.6958 10.8653C13.6095 10.8432 13.5192 10.8425 13.4326 10.863C13.3459 10.8836 13.2656 10.9249 13.1985 10.9834C12.3964 11.6685 11.2883 12.3987 10.8101 12.474C7.605 10.9069 5.81513 7.8998 5.74763 7.32942C5.70825 7.0088 6.44288 5.88267 7.28775 4.96692C7.34085 4.90929 7.3813 4.84118 7.40649 4.76697C7.43168 4.69276 7.44105 4.6141 7.434 4.53605Z" fill="white"/>
</g>
<defs>
<clipPath id="clip0_403_987">
<rect width="18" height="18" fill="white"/>
</clipPath>
</defs>
</svg>
