<svg width="108" height="19" viewBox="0 0 108 19" fill="none" xmlns="http://www.w3.org/2000/svg">
<path d="M9.73142 0.577148L11.9163 6.88113H18.9865L13.2666 10.7772L15.4514 17.0812L9.73142 13.1851L4.01143 17.0812L6.19627 10.7772L0.47629 6.88113H7.54658L9.73142 0.577148Z" fill="#FBB040"/>
<path d="M9.73142 0.577148L11.9163 6.88113H18.9865L13.2666 10.7772L15.4514 17.0812L9.73142 13.1851L4.01143 17.0812L6.19627 10.7772L0.47629 6.88113H7.54658L9.73142 0.577148Z" fill="#FBB040"/>
<path d="M31.6267 0.577087L33.8115 6.88107H40.8818L35.1618 10.7771L37.3467 17.0811L31.6267 13.185L25.9067 17.0811L28.0915 10.7771L22.3716 6.88107H29.4418L31.6267 0.577087Z" fill="#FBB040"/>
<path d="M31.6267 0.577087L33.8115 6.88107H40.8818L35.1618 10.7771L37.3467 17.0811L31.6267 13.185L25.9067 17.0811L28.0915 10.7771L22.3716 6.88107H29.4418L31.6267 0.577087Z" fill="#FBB040"/>
<path d="M53.5239 0.577087L55.7087 6.88107H62.779L57.059 10.7771L59.2439 17.0811L53.5239 13.185L47.8039 17.0811L49.9888 10.7771L44.2688 6.88107H51.3391L53.5239 0.577087Z" fill="#FBB040"/>
<path d="M53.5239 0.577087L55.7087 6.88107H62.779L57.059 10.7771L59.2439 17.0811L53.5239 13.185L47.8039 17.0811L49.9888 10.7771L44.2688 6.88107H51.3391L53.5239 0.577087Z" fill="#FBB040"/>
<path d="M75.416 0.577087L77.6008 6.88107H84.6711L78.9511 10.7771L81.136 17.0811L75.416 13.185L69.696 17.0811L71.8808 10.7771L66.1609 6.88107H73.2311L75.416 0.577087Z" fill="#FBB040"/>
<path d="M75.416 0.577087L77.6008 6.88107H84.6711L78.9511 10.7771L81.136 17.0811L75.416 13.185L69.696 17.0811L71.8808 10.7771L66.1609 6.88107H73.2311L75.416 0.577087Z" fill="#FBB040"/>
<path d="M97.3128 0.577087L99.4977 6.88107H106.568L100.848 10.7771L103.033 17.0811L97.3128 13.185L91.5929 17.0811L93.7777 10.7771L88.0577 6.88107H95.128L97.3128 0.577087Z" fill="#FBB040"/>
<path d="M97.3128 0.577087L99.4977 6.88107H106.568L100.848 10.7771L103.033 17.0811L97.3128 13.185L91.5929 17.0811L93.7777 10.7771L88.0577 6.88107H95.128L97.3128 0.577087Z" fill="#FBB040"/>
</svg>
