<svg width="38" height="38" viewBox="0 0 38 38" fill="none" xmlns="http://www.w3.org/2000/svg">
<g id="Checkmark" clip-path="url(#clip0_420_9)">
<g id="Layer 2">
<g id="checkmark">
<path id="Vector" d="M15.6117 28.5001C15.3946 28.4994 15.1799 28.4541 14.9811 28.3669C14.7823 28.2797 14.6035 28.1526 14.4558 27.9934L6.76085 19.8076C6.4732 19.5011 6.3191 19.0928 6.33247 18.6726C6.34583 18.2525 6.52555 17.8548 6.8321 17.5672C7.13864 17.2795 7.5469 17.1254 7.96706 17.1388C8.38722 17.1522 8.78486 17.3319 9.07251 17.6384L15.5958 24.5893L28.9117 10.0226C29.0468 9.85433 29.2149 9.71546 29.4057 9.61452C29.5964 9.51358 29.8058 9.4527 30.0209 9.43563C30.2361 9.41855 30.4524 9.44564 30.6567 9.51523C30.861 9.58481 31.0489 9.69542 31.2089 9.84027C31.3689 9.98512 31.4976 10.1612 31.5871 10.3575C31.6765 10.5539 31.7249 10.7665 31.7292 10.9823C31.7336 11.1981 31.6937 11.4125 31.6122 11.6123C31.5306 11.8121 31.4091 11.9931 31.255 12.1443L16.7833 27.9776C16.6371 28.1397 16.4589 28.2697 16.26 28.3597C16.0611 28.4496 15.8458 28.4974 15.6275 28.5001H15.6117Z" fill="#26BD00"/>
</g>
</g>
</g>
<defs>
<clipPath id="clip0_420_9">
<rect width="38" height="38" fill="white"/>
</clipPath>
</defs>
</svg>
