<svg width="17" height="16" viewBox="0 0 17 16" fill="none" xmlns="http://www.w3.org/2000/svg">
<path d="M12.5533 8.27998L8.43328 12.4066C7.89315 12.8867 7.19004 13.1422 6.46776 13.1209C5.74548 13.0996 5.05861 12.8032 4.54766 12.2923C4.03671 11.7813 3.74028 11.0944 3.71902 10.3722C3.69776 9.64988 3.95327 8.94677 4.43328 8.40664L9.76661 3.07331C10.085 2.77084 10.5074 2.6022 10.9466 2.6022C11.3858 2.6022 11.8082 2.77084 12.1266 3.07331C12.4368 3.38771 12.6108 3.81163 12.6108 4.25331C12.6108 4.695 12.4368 5.11892 12.1266 5.43331L7.52661 10.0266C7.48109 10.0757 7.42635 10.1153 7.36553 10.1431C7.30471 10.171 7.23899 10.1866 7.17213 10.1891C7.10528 10.1916 7.03858 10.1809 6.97587 10.1576C6.91315 10.1343 6.85564 10.0988 6.80661 10.0533C6.75758 10.0078 6.718 9.95305 6.69013 9.89223C6.66226 9.83141 6.64664 9.76569 6.64416 9.69884C6.64168 9.63198 6.6524 9.56529 6.6757 9.50257C6.699 9.43985 6.73442 9.38234 6.77994 9.33331L10.1999 5.91998C10.3255 5.79444 10.396 5.62418 10.396 5.44665C10.396 5.26911 10.3255 5.09885 10.1999 4.97331C10.0744 4.84778 9.90415 4.77725 9.72661 4.77725C9.54908 4.77725 9.37881 4.84778 9.25328 4.97331L5.83328 8.39998C5.66215 8.56978 5.52632 8.77178 5.43363 8.99433C5.34094 9.21687 5.29322 9.45557 5.29322 9.69665C5.29322 9.93772 5.34094 10.1764 5.43363 10.399C5.52632 10.6215 5.66215 10.8235 5.83328 10.9933C6.18286 11.3263 6.64715 11.512 7.12994 11.512C7.61274 11.512 8.07703 11.3263 8.42661 10.9933L13.0199 6.39331C13.5499 5.82461 13.8384 5.07243 13.8246 4.29522C13.8109 3.51802 13.4961 2.77648 12.9464 2.22682C12.3968 1.67717 11.6552 1.36232 10.878 1.34861C10.1008 1.3349 9.34864 1.62339 8.77994 2.15331L3.44661 7.48664C2.72741 8.2832 2.3433 9.32655 2.3743 10.3993C2.4053 11.472 2.84903 12.4915 3.61304 13.2452C4.37704 13.9988 5.4024 14.4287 6.47547 14.4451C7.54854 14.4615 8.58657 14.0633 9.37328 13.3333L13.4999 9.21331C13.5621 9.15115 13.6114 9.07736 13.6451 8.99614C13.6787 8.91493 13.696 8.82788 13.696 8.73998C13.696 8.65207 13.6787 8.56503 13.6451 8.48381C13.6114 8.4026 13.5621 8.3288 13.4999 8.26664C13.4378 8.20449 13.364 8.15518 13.2828 8.12154C13.2016 8.0879 13.1145 8.07058 13.0266 8.07058C12.9387 8.07058 12.8517 8.0879 12.7704 8.12154C12.6892 8.15518 12.6154 8.20449 12.5533 8.26664V8.27998Z" fill="white"/>
</svg>
